<svg id="Capa_1" enable-background="new 0 0 512.001 512.001" height="512" viewBox="0 0 512.001 512.001" width="512" xmlns="http://www.w3.org/2000/svg" xmlns:xlink="http://www.w3.org/1999/xlink"><linearGradient id="SVGID_1_" gradientTransform="matrix(1 0 0 -1 -561.6 -2330.99)" gradientUnits="userSpaceOnUse" x1="863.508" x2="755.497" y1="-2276.015" y2="-2981.088"><stop offset="0" stop-color="#ffd9d9" stop-opacity="0"/><stop offset=".9981" stop-color="#ffb3b3"/></linearGradient><linearGradient id="SVGID_2_" gradientUnits="userSpaceOnUse" x1="256" x2="256" y1="381.97" y2="148.03"><stop offset="0" stop-color="#ff4d4d" stop-opacity=".4"/><stop offset="1" stop-color="#ff4d4d" stop-opacity="0"/></linearGradient><g><g><path d="m338.919 70.183c-1.369 0-2.734.012-4.096.037-33.932.616-66.631-11.72-93.007-33.075-23.389-18.936-53.236-30.21-85.724-29.998-74.135.484-135.234 63.074-134.007 137.2.33 19.96 4.996 38.864 13.096 55.813 13.801 28.879 10.825 63.235-8.352 88.861-7.92 10.584-14.402 22.515-19.061 35.605-24.826 69.757 11.848 147.296 81.551 172.272 70.982 25.434 148.823-12.162 173.19-83.256 1.805-5.266 3.265-10.567 4.393-15.878 7.162-33.729 36.586-57.876 71.067-57.732.317.001.634.002.951.002 95.59 0 173.08-60.408 173.08-134.925s-77.492-134.926-173.081-134.926z" fill="url(#SVGID_1_)"/><g><g><g><path d="m452.039 163.03v203.94c0 8.29-6.71 15-15 15h-362.08c-8.29 0-15-6.71-15-15v-203.94c0-8.29 6.71-15 15-15h362.08c8.29 0 15 6.71 15 15z" fill="#8383ff"/><path d="m418.999 148.03v210.18c0 5.52-4.48 10-10 10h-143c-2.76 0-5.26-1.12-7.07-2.93s-2.93-4.31-2.93-7.07c0 5.52-4.48 10-10 10h-143c-5.52 0-10-4.48-10-10v-210.18z" fill="#4d4dff"/><g><path d="m452.041 335.576h-392.086v-172.548c0-8.284 6.716-15 15-15h362.086c8.284 0 15 6.716 15 15z" fill="#ff9d33"/></g></g><g><path d="m255.999 151.24v189.42c0 5.52-4.48 10-10 10h-143c-5.52 0-10-4.48-10-10v-204.42c0-5.52 4.48-10 10-10h128c13.81 0 25 11.19 25 25z" fill="#fff"/><g><path d="m206.249 225.5c-3.79 2.82-7.4 4.23-10.83 4.23-3.09 0-5.6-1.45-7.53-4.36-1.94-2.82-2.91-7.22-2.91-13.21v-67.61c0-6.87-2.18-12.98-6.54-18.31h-26.8c1.13.73 2.2 1.55 3.23 2.46 5.37 4.75 8.06 10.48 8.06 17.17v18.75c-25.1 2.82-45.19 8.48-60.29 16.97-3.66 2.06-6.87 4.25-9.64 6.56v48.68c6.4 3.98 15 5.97 25.82 5.97 8.89 0 16.51-1.47 22.84-4.42 6.34-2.95 13.69-8.83 22.06-17.63 3.08 8.19 6.67 13.91 10.76 17.17 4.1 3.25 9.14 4.88 15.13 4.88 7.83 0 14.96-3.3 21.39-9.9zm-43.32-34.47c0 11.89-3.81 21.77-11.43 29.65-7.61 7.88-16.62 11.82-27 11.82-5.82 0-10.53-1.91-14.14-5.74s-5.41-9.14-5.41-15.92c0-9.68 3.48-17.17 10.43-22.45 9.33-6.95 25.18-11.97 47.55-15.05zm-51.11-32.42c2.55-2.51 3.83-5.74 3.83-9.71 0-2.72-1.28-5.85-3.83-9.37-2.12-2.82-3.17-4.89-3.17-6.21 0-2.29 1.98-4.62 5.94-7 .05-.03.1-.06.15-.08h-11.74c-5.52 0-10 4.48-10 10v23.54c2.51 1.73 5.44 2.59 8.78 2.59 4.14 0 7.48-1.25 10.04-3.76z" fill="#ebebff"/></g><path d="m265.999 350.66h142.999c5.523 0 10-4.477 10-10v-204.418c0-5.523-4.477-10-10-10h-127.999c-13.807 0-25 11.193-25 25v189.418c0 5.523 4.477 10 10 10z" fill="#fff"/></g><g><g><g><g><path d="m327.778 165.557h-43.52c-2.762 0-5-2.239-5-5s2.238-5 5-5h43.52c2.762 0 5 2.239 5 5s-2.238 5-5 5z" fill="#ff6c6c"/></g><g><path d="m327.778 185.06h-43.52c-2.762 0-5-2.239-5-5s2.238-5 5-5h43.52c2.762 0 5 2.239 5 5s-2.238 5-5 5z" fill="#ff6c6c"/></g><g><path d="m327.778 204.563h-43.52c-2.762 0-5-2.239-5-5s2.238-5 5-5h43.52c2.762 0 5 2.239 5 5s-2.238 5-5 5z" fill="#ff6c6c"/></g><g><path d="m327.778 224.066h-43.52c-2.762 0-5-2.239-5-5s2.238-5 5-5h43.52c2.762 0 5 2.239 5 5s-2.238 5-5 5z" fill="#ff6c6c"/></g><g><path d="m327.778 243.568h-43.52c-2.762 0-5-2.239-5-5s2.238-5 5-5h43.52c2.762 0 5 2.239 5 5s-2.238 5-5 5z" fill="#ff6c6c"/></g></g><g><g><path d="m390.739 165.557h-43.52c-2.762 0-5-2.239-5-5s2.238-5 5-5h43.52c2.762 0 5 2.239 5 5s-2.239 5-5 5z" fill="#ff6c6c"/></g><g><path d="m390.739 185.06h-43.52c-2.762 0-5-2.239-5-5s2.238-5 5-5h43.52c2.762 0 5 2.239 5 5s-2.239 5-5 5z" fill="#ff6c6c"/></g><g><path d="m390.739 204.563h-43.52c-2.762 0-5-2.239-5-5s2.238-5 5-5h43.52c2.762 0 5 2.239 5 5s-2.239 5-5 5z" fill="#ff6c6c"/></g><g><path d="m390.739 224.066h-43.52c-2.762 0-5-2.239-5-5s2.238-5 5-5h43.52c2.762 0 5 2.239 5 5s-2.239 5-5 5z" fill="#ff6c6c"/></g><g><path d="m390.739 243.568h-43.52c-2.762 0-5-2.239-5-5s2.238-5 5-5h43.52c2.762 0 5 2.239 5 5s-2.239 5-5 5z" fill="#ff6c6c"/></g></g></g><g><g><g><path d="m327.778 263.071h-43.52c-2.762 0-5-2.239-5-5s2.238-5 5-5h43.52c2.762 0 5 2.239 5 5s-2.238 5-5 5z" fill="#ff9d33"/></g><g><path d="m327.778 282.574h-43.52c-2.762 0-5-2.239-5-5s2.238-5 5-5h43.52c2.762 0 5 2.239 5 5s-2.238 5-5 5z" fill="#ff9d33"/></g><g><path d="m327.778 302.076h-43.52c-2.762 0-5-2.239-5-5s2.238-5 5-5h43.52c2.762 0 5 2.239 5 5s-2.238 5-5 5z" fill="#ff9d33"/></g><g><path d="m327.778 321.579h-43.52c-2.762 0-5-2.239-5-5s2.238-5 5-5h43.52c2.762 0 5 2.239 5 5s-2.238 5-5 5z" fill="#ff9d33"/></g></g><g><g><path d="m390.739 263.071h-43.52c-2.762 0-5-2.239-5-5s2.238-5 5-5h43.52c2.762 0 5 2.239 5 5s-2.239 5-5 5z" fill="#ff9d33"/></g><g><path d="m390.739 282.574h-43.52c-2.762 0-5-2.239-5-5s2.238-5 5-5h43.52c2.762 0 5 2.239 5 5s-2.239 5-5 5z" fill="#ff9d33"/></g><g><path d="m390.739 302.076h-43.52c-2.762 0-5-2.239-5-5s2.238-5 5-5h43.52c2.762 0 5 2.239 5 5s-2.239 5-5 5z" fill="#ff9d33"/></g><g><path d="m390.739 321.579h-43.52c-2.762 0-5-2.239-5-5s2.238-5 5-5h43.52c2.762 0 5 2.239 5 5s-2.239 5-5 5z" fill="#ff9d33"/></g></g></g><g><g><g><path d="m165.439 282.574h-43.52c-2.762 0-5-2.239-5-5s2.238-5 5-5h43.52c2.762 0 5 2.239 5 5s-2.238 5-5 5z" fill="#ff9d33"/></g><g><path d="m165.439 302.076h-43.52c-2.762 0-5-2.239-5-5s2.238-5 5-5h43.52c2.762 0 5 2.239 5 5s-2.238 5-5 5z" fill="#ff9d33"/></g><g><path d="m165.439 321.579h-43.52c-2.762 0-5-2.239-5-5s2.238-5 5-5h43.52c2.762 0 5 2.239 5 5s-2.238 5-5 5z" fill="#ff9d33"/></g></g><g><g><path d="m228.4 282.574h-43.52c-2.762 0-5-2.239-5-5s2.238-5 5-5h43.52c2.762 0 5 2.239 5 5s-2.238 5-5 5z" fill="#ff9d33"/></g><g><path d="m228.4 302.076h-43.52c-2.762 0-5-2.239-5-5s2.238-5 5-5h43.52c2.762 0 5 2.239 5 5s-2.238 5-5 5z" fill="#ff9d33"/></g><g><path d="m228.4 321.579h-43.52c-2.762 0-5-2.239-5-5s2.238-5 5-5h43.52c2.762 0 5 2.239 5 5s-2.238 5-5 5z" fill="#ff9d33"/></g></g></g></g><g><g><g><path d="m170.16 235.842h-49.52c-2.762 0-5-2.239-5-5s2.238-5 5-5h49.52c2.762 0 5 2.239 5 5s-2.239 5-5 5z" fill="#8383ff"/></g><g><path d="m197.16 253.345h-76.52c-2.762 0-5-2.239-5-5s2.238-5 5-5h76.52c2.762 0 5 2.239 5 5s-2.239 5-5 5z" fill="#8383ff"/></g></g><g fill="#8383ff"><circle cx="122.187" cy="212.792" r="5"/><circle cx="138.437" cy="212.792" r="5"/></g></g><path d="m232.27 166.254c0-9.161-7.453-16.613-16.613-16.613s-16.613 7.453-16.613 16.613c0 4.518 1.818 8.615 4.755 11.613-2.936 2.998-4.755 7.095-4.755 11.613 0 2.761 2.238 5 5 5s5-2.239 5-5c0-3.646 2.967-6.613 6.613-6.613s6.613 2.967 6.613 6.613c0 2.761 2.238 5 5 5s5-2.239 5-5c0-4.518-1.818-8.615-4.755-11.613 2.936-2.998 4.755-7.096 4.755-11.613zm-16.614-6.614c3.646 0 6.613 2.967 6.613 6.613s-2.967 6.613-6.613 6.613-6.613-2.967-6.613-6.613 2.967-6.613 6.613-6.613z" fill="#ff6c6c"/></g><path d="m248.223 465.385c-1.279 0-2.56-.488-3.535-1.464l-4.465-4.464-4.465 4.464c-1.951 1.952-5.119 1.952-7.07 0-1.953-1.953-1.953-5.119 0-7.071l8-8c1.951-1.952 5.119-1.952 7.07 0l8 8c1.953 1.953 1.953 5.119 0 7.071-.976.975-2.256 1.464-3.535 1.464z" fill="#8383ff"/><path d="m324.778 56c-1.279 0-2.56-.488-3.535-1.464l-4.465-4.464-4.465 4.464c-1.951 1.952-5.119 1.952-7.07 0-1.953-1.953-1.953-5.119 0-7.071l8-8c1.951-1.952 5.119-1.952 7.07 0l8 8c1.953 1.953 1.953 5.119 0 7.071-.975.976-2.255 1.464-3.535 1.464z" fill="#ff9d33"/><path d="m295.259 93.333c-1.279 0-2.56-.488-3.535-1.464l-4.465-4.464-4.465 4.464c-1.951 1.952-5.119 1.952-7.07 0-1.953-1.953-1.953-5.119 0-7.071l8-8c1.951-1.952 5.119-1.952 7.07 0l8 8c1.953 1.953 1.953 5.119 0 7.071-.976.976-2.256 1.464-3.535 1.464z" fill="#8383ff"/><g fill="#ff6c6c"><path d="m79.666 102h-3v-3c0-2.761-2.238-5-5-5s-5 2.239-5 5v3h-3c-2.762 0-5 2.239-5 5s2.238 5 5 5h3v3c0 2.761 2.238 5 5 5s5-2.239 5-5v-3h3c2.762 0 5-2.239 5-5s-2.238-5-5-5z"/><path d="m282.999 429.758h-3v-3c0-2.761-2.238-5-5-5s-5 2.239-5 5v3h-3c-2.762 0-5 2.239-5 5s2.238 5 5 5h3v3c0 2.761 2.238 5 5 5s5-2.239 5-5v-3h3c2.762 0 5-2.239 5-5s-2.238-5-5-5z"/></g></g><path d="m452.039 163.03v203.94c0 8.29-6.71 15-15 15h-362.08c-8.29 0-15-6.71-15-15v-203.94c0-8.29 6.71-15 15-15h362.08c8.29 0 15 6.71 15 15z" fill="url(#SVGID_2_)"/><g><path d="m243.399 350.66v54.81c0 4.02-4.5 6.39-7.82 4.13l-13.31-9.07-13.31 9.07c-3.32 2.26-7.82-.11-7.82-4.13v-54.81z" fill="#ff6c6c"/><path d="m201.139 350.66h42.26v17.55h-42.26z" fill="#ff4d4d"/></g></g></g></svg>