<svg height="496pt" viewBox="0 0 496 496" width="496pt" xmlns="http://www.w3.org/2000/svg" xmlns:xlink="http://www.w3.org/1999/xlink"><linearGradient id="linear0" gradientUnits="userSpaceOnUse" x1="248" x2="248" y1="496" y2="0"><stop offset="0" stop-color="#9f2fff"/><stop offset="1" stop-color="#0bb1d3"/></linearGradient><path d="m432 244.375c18.191406-20.671875 29.777344-47.191406 31.59375-76.375h32.40625v-8c0-88.222656-71.777344-160-160-160h-8v32.40625c-66.847656 4.160156-120 59.714844-120 127.59375 0 5.433594.449219 10.742188 1.113281 16h-209.113281v320h432zm-88 27.21875v-103.59375h103.59375c-3.9375 55.367188-48.226562 99.65625-103.59375 103.59375zm-16 0c-24.863281-1.769531-47.472656-11.640625-65.230469-27.050781l65.230469-65.230469zm16-255.378906c73.046875 4.023437 131.761719 62.738281 135.785156 135.785156h-135.785156zm-16 124.472656-65.230469-65.230469c17.757813-15.410156 40.375-25.28125 65.230469-27.050781zm-76.542969-53.917969 73.230469 73.230469-73.230469 73.230469c-17.058593-19.65625-27.457031-45.222657-27.457031-73.230469s10.398438-53.574219 27.457031-73.230469zm-39.242187 105.230469c4.601562 17.777344 12.847656 34.089844 24.023437 48h-220.238281v-48zm-196.214844 288v-224h235.625c22.550781 19.847656 52.039062 32 84.375 32 30.265625 0 58.0625-10.617188 80-28.238281v220.238281zm32-256h-16v-16h16zm32 0h-16v-16h16zm32 0h-16v-16h16zm283.71875-158.710938 8.554688-13.511718c27.03125 17.109375 46.605468 43.421875 55.101562 74.09375l-15.421875 4.273437c-7.425781-26.839843-24.5625-49.871093-48.234375-64.855469zm-14.933594-7.945312c-4.824218-2.121094-9.839844-3.902344-14.921875-5.3125l4.273438-15.421875c5.816406 1.613281 11.558593 3.65625 17.078125 6.070313zm-140.785156 406.65625h160v-48h-160zm64-16v-16h32v16zm80 0h-32v-16h32zm-128-16h32v16h-32zm-16-48h160v16h-160zm0-32h160v16h-160zm0-32h160v16h-160zm-56-16c-6.457031 0-12.296875 2.59375-16.609375 6.742188l-23.679687-11.839844c.113281-.957032.289062-1.910156.289062-2.902344 0-13.230469-10.769531-24-24-24s-24 10.769531-24 24c0 2.488281.488281 4.847656 1.191406 7.105469l-27.910156 20.925781c-3.800781-2.535156-8.371094-4.03125-13.28125-4.03125-13.230469 0-24 10.769531-24 24s10.769531 24 24 24 24-10.769531 24-24c0-2.488281-.488281-4.847656-1.191406-7.105469l27.910156-20.925781c3.800781 2.535156 8.371094 4.03125 13.28125 4.03125 6.457031 0 12.296875-2.59375 16.617188-6.753906l23.679687 11.84375c-.121094.964844-.296875 1.910156-.296875 2.910156 0 13.230469 10.769531 24 24 24s24-10.769531 24-24-10.769531-24-24-24zm-128 48c-4.40625 0-8-3.59375-8-8s3.59375-8 8-8 8 3.59375 8 8-3.59375 8-8 8zm64-48c-4.40625 0-8-3.59375-8-8s3.59375-8 8-8 8 3.59375 8 8-3.59375 8-8 8zm64 32c-4.40625 0-8-3.59375-8-8s3.59375-8 8-8 8 3.59375 8 8-3.59375 8-8 8zm-152 128h48v-80h-48zm16-64h16v48h-16zm48 64h48v-128h-48zm16-112h16v96h-16zm48 112h48v-96h-48zm16-80h16v64h-16zm0 0" fill="url(#linear0)"/></svg>