<svg id="Capa_1" enable-background="new 0 0 512 512" height="512" viewBox="0 0 512 512" width="512" xmlns="http://www.w3.org/2000/svg" xmlns:xlink="http://www.w3.org/1999/xlink"><linearGradient id="SVGID_1_" gradientTransform="matrix(1 0 0 -1 -561.6 -11906.99)" gradientUnits="userSpaceOnUse" x1="998.685" x2="557.6" y1="-11981.905" y2="-12422.99"><stop offset="0" stop-color="#ffd9d9" stop-opacity="0"/><stop offset=".9981" stop-color="#ffb3b3"/></linearGradient><linearGradient id="lg1"><stop offset="0" stop-color="#ff4d4d" stop-opacity=".4"/><stop offset="1" stop-color="#ff4d4d" stop-opacity="0"/></linearGradient><linearGradient id="SVGID_2_" gradientUnits="userSpaceOnUse" x1="412.603" x2="412.603" xlink:href="#lg1" y1="383.044" y2="218.37"/><linearGradient id="SVGID_3_" gradientUnits="userSpaceOnUse" x1="99.397" x2="99.397" xlink:href="#lg1" y1="383.044" y2="218.37"/><g><g><path d="m411.152 155.152c-29.991 0-54.303-24.312-54.303-54.303 0-55.698-45.152-100.849-100.849-100.849s-100.848 45.151-100.848 100.848c0 29.991-24.312 54.303-54.303 54.303-55.698.001-100.849 45.152-100.849 100.849s45.151 100.848 100.848 100.848c29.991 0 54.303 24.312 54.303 54.303.001 55.698 45.152 100.849 100.849 100.849s100.848-45.151 100.848-100.848c0-29.991 24.312-54.303 54.303-54.303 55.698-.001 100.849-45.152 100.849-100.849s-45.151-100.848-100.848-100.848z" fill="url(#SVGID_1_)"/><g><path d="m225.531 114.371h-3v-3c0-2.762-2.239-5-5-5s-5 2.238-5 5v3h-3c-2.761 0-5 2.238-5 5s2.239 5 5 5h3v3c0 2.762 2.239 5 5 5s5-2.238 5-5v-3h3c2.761 0 5-2.238 5-5s-2.239-5-5-5z" fill="#8383ff"/><path d="m444.801 110.371h-3v-3c0-2.762-2.239-5-5-5s-5 2.238-5 5v3h-3c-2.761 0-5 2.238-5 5s2.239 5 5 5h3v3c0 2.762 2.239 5 5 5s5-2.238 5-5v-3h3c2.761 0 5-2.238 5-5s-2.239-5-5-5z" fill="#ff9d33"/><path d="m271.784 147.5c-1.28 0-2.559-.488-3.536-1.465l-4.464-4.464-4.464 4.464c-1.953 1.953-5.118 1.953-7.071 0-1.953-1.952-1.953-5.118 0-7.07l8-8c1.953-1.953 5.118-1.953 7.071 0l8 8c1.953 1.952 1.953 5.118 0 7.07-.977.977-2.256 1.465-3.536 1.465z" fill="#ff6c6c"/><path d="m420.979 65.988c-1.28 0-2.559-.488-3.536-1.465l-4.464-4.464-4.464 4.464c-1.953 1.953-5.118 1.953-7.071 0-1.953-1.952-1.953-5.118 0-7.07l8-8c1.953-1.953 5.118-1.953 7.071 0l8 8c1.953 1.952 1.953 5.118 0 7.07-.977.977-2.256 1.465-3.536 1.465z" fill="#ff6c6c"/><path d="m137.886 443.345c-1.28 0-2.559-.488-3.536-1.465l-4.464-4.464-4.464 4.464c-1.953 1.953-5.118 1.953-7.071 0-1.953-1.952-1.953-5.118 0-7.07l8-8c1.953-1.953 5.118-1.953 7.071 0l8 8c1.953 1.952 1.953 5.118 0 7.07-.977.976-2.256 1.465-3.536 1.465z" fill="#ff9d33"/><g><path d="m396.019 383.045v12.689c0 18.717-15.227 33.943-33.943 33.943h-46.193v10h46.194c24.23 0 43.943-19.713 43.943-43.943v-12.689z" fill="#2626bc"/><path d="m368.268 81.776c-29.283-30.415-69.981-47.788-112.268-47.788-42.301 0-82.983 17.366-112.269 47.785l-3.207 3.843s8.285 7.477 7.321 6.608l3.314-3.745c27.393-28.323 65.363-44.491 104.841-44.491 39.466 0 77.455 16.168 104.842 44.489l3.479 3.595 7.274-6.565z" fill="#2626bc"/><g><g><circle cx="256" cy="294.988" fill="#ffc599" r="97.379"/><circle cx="256" cy="294.988" fill="#ff7300" r="76.619"/><g fill="#fff"><path d="m256 346.381c-28.338 0-51.392-23.055-51.392-51.393s23.054-51.392 51.392-51.392 51.392 23.054 51.392 51.392-23.054 51.393-51.392 51.393zm0-92.784c-22.824 0-41.392 18.568-41.392 41.392s18.568 41.393 41.392 41.393 41.392-18.568 41.392-41.393c0-22.824-18.568-41.392-41.392-41.392z"/><path d="m256 346.381c-16.433 0-25.3-26.479-25.3-51.393 0-24.913 8.867-51.392 25.3-51.392s25.3 26.479 25.3 51.392c0 24.914-8.867 51.393-25.3 51.393zm0-92.784c-6.238 0-15.3 16.124-15.3 41.392 0 11.718 1.963 22.655 5.526 30.8 2.859 6.534 6.604 10.593 9.774 10.593 6.238 0 15.3-16.125 15.3-41.393 0-11.717-1.963-22.655-5.526-30.799-2.859-6.535-6.604-10.593-9.774-10.593z"/><g><path d="m256 285.356c-16.362 0-31.759-3.646-41.188-9.754-2.318-1.501-2.979-4.597-1.478-6.915 1.501-2.316 4.598-2.977 6.915-1.478 7.875 5.101 21.24 8.146 35.751 8.146 14.5 0 28.301-3.188 36.017-8.321 2.298-1.529 5.402-.905 6.933 1.394 1.529 2.3.905 5.403-1.394 6.933-9.409 6.259-24.944 9.995-41.556 9.995z"/><path d="m217.104 323.856c-1.609 0-3.19-.776-4.155-2.213-1.54-2.292-.93-5.398 1.362-6.938 9.4-6.314 24.985-10.085 41.689-10.085 16.36 0 31.757 3.646 41.187 9.754 2.318 1.501 2.98 4.597 1.479 6.914s-4.596 2.983-6.915 1.479c-7.877-5.101-21.242-8.146-35.751-8.146-14.575 0-28.413 3.213-36.113 8.386-.855.574-1.825.849-2.783.849z"/></g></g></g><g><g><g><path d="m124.898 383.044h-33.836c-15.003 0-27.166-12.163-27.166-27.166v-110.342c0-15.003 12.163-27.166 27.166-27.166h33.836c5.523 0 10 4.477 10 10v144.675c0 5.522-4.477 9.999-10 9.999z" fill="#8383ff"/></g><g><path d="m124.898 218.37h-13.918v164.675h13.918c5.523 0 10-4.477 10-10v-144.675c0-5.523-4.477-10-10-10z" fill="#b3b3ff"/></g><circle cx="110.98" cy="349.322" fill="#ffc599" r="11.959"/><path d="m73.313 294.988h-13c-2.761 0-5-2.239-5-5v-30.333c0-2.761 2.239-5 5-5h13c2.761 0 5 2.239 5 5v30.333c0 2.762-2.238 5-5 5z" fill="#ff6c6c"/></g><g><g><path d="m387.102 383.044h33.836c15.003 0 27.166-12.163 27.166-27.166v-110.342c0-15.003-12.163-27.166-27.166-27.166h-33.836c-5.523 0-10 4.477-10 10v144.675c0 5.522 4.477 9.999 10 9.999z" fill="#8383ff"/></g><g><path d="m387.102 218.37h13.918v164.675h-13.918c-5.523 0-10-4.477-10-10v-144.675c0-5.523 4.477-10 10-10z" fill="#b3b3ff"/></g><circle cx="401.02" cy="349.322" fill="#ffc599" r="11.959"/><path d="m438.687 294.988h13c2.761 0 5-2.239 5-5v-30.333c0-2.761-2.239-5-5-5h-13c-2.761 0-5 2.239-5 5v30.333c0 2.762 2.238 5 5 5z" fill="#ff6c6c"/></g></g><g><g><path d="m389.759 218.37h28.557c1.646-9.408 2.485-18.992 2.485-28.598 0-39.253-13.905-76.972-39.256-106.756-1.709-2.008-4.743-2.208-6.701-.441l-13.88 12.527c-1.874 1.692-2.056 4.558-.427 6.487 20.816 24.651 32.228 55.787 32.228 88.183.001 9.642-1.019 19.249-3.006 28.598z" fill="#ff6c6c"/></g><g><path d="m122.241 218.37c-1.987-9.349-3.007-18.956-3.007-28.598 0-32.396 11.412-63.533 32.228-88.183 1.629-1.929 1.447-4.796-.427-6.487l-13.88-12.527c-1.958-1.767-4.992-1.567-6.701.441-25.35 29.784-39.256 67.503-39.256 106.756 0 9.606.84 19.19 2.485 28.598z" fill="#ff6c6c"/></g></g></g><path d="m267.825 446.012h38.175c6.443 0 11.667-5.223 11.667-11.667 0-6.443-5.223-11.667-11.667-11.667h-38.175c-6.443 0-11.667 5.223-11.667 11.667.001 6.443 5.224 11.667 11.667 11.667z" fill="#8383ff"/></g><path d="m387.102 383.044h33.836c15.003 0 27.166-12.163 27.166-27.166v-110.342c0-15.003-12.163-27.166-27.166-27.166h-33.836c-5.523 0-10 4.477-10 10v144.675c0 5.522 4.477 9.999 10 9.999z" fill="url(#SVGID_2_)"/><path d="m124.898 383.044h-33.836c-15.003 0-27.166-12.163-27.166-27.166v-110.342c0-15.003 12.163-27.166 27.166-27.166h33.836c5.523 0 10 4.477 10 10v144.675c0 5.522-4.477 9.999-10 9.999z" fill="url(#SVGID_3_)"/></g></g></g></svg>